<svg width="75" height="75" viewBox="0 0 75 75" fill="none" xmlns="http://www.w3.org/2000/svg">
    <g clip-path="url(#clip0_174_85)">
        <path
            d="M67.0448 17.767H65.3775V16.0999C65.3775 12.1751 62.1847 8.98218 58.26 8.98218H7.1692C3.24443 8.98218 0.0515137 12.1752 0.0515137 16.0999V49.5403C0.0515137 53.4649 3.24456 56.658 7.1692 56.658H8.83636V58.3251C8.83636 62.2499 12.0294 65.4428 15.954 65.4428H67.0446C70.9693 65.4428 74.1624 62.2499 74.1624 58.3251V24.8847C74.1622 20.9599 70.9694 17.767 67.0448 17.767ZM68.9176 58.325C68.9176 59.3595 68.079 60.1981 67.0447 60.1981H15.954C14.9196 60.1981 14.081 59.3595 14.081 58.325V56.6579V54.0356V51.4133V24.8847C14.081 23.8501 14.9196 23.0116 15.954 23.0116H60.1329H62.7552H65.3775H67.0448C68.0792 23.0116 68.9178 23.8502 68.9178 24.8847V58.325H68.9176ZM5.29612 49.5402V16.0999C5.29612 15.0654 6.13472 14.2268 7.1692 14.2268H58.26C59.2943 14.2268 60.1329 15.0654 60.1329 16.0999V17.767H15.954C12.0294 17.767 8.83636 20.96 8.83636 24.8847V51.4133H7.16932C6.13472 51.4133 5.29612 50.5747 5.29612 49.5402Z"
            fill="#00AC4E" />
        <path
            d="M67.0451 65.5046H15.9545C11.996 65.5046 8.77557 62.2841 8.77557 58.3257V56.7197H7.16974C3.21131 56.7197 -0.00915527 53.4993 -0.00915527 49.5409V16.1005C-0.00915527 12.1421 3.21131 8.92163 7.16974 8.92163H58.2605C62.2188 8.92163 65.4393 12.1421 65.4393 16.1005V17.7065H67.0453C71.0036 17.7065 74.2241 20.9269 74.2241 24.8853V58.3257C74.224 62.2841 71.0036 65.5046 67.0451 65.5046ZM7.16974 9.04393C3.27876 9.04393 0.113268 12.2095 0.113268 16.1005V49.541C0.113268 53.4318 3.27876 56.5974 7.16974 56.5974H8.89811V58.3258C8.89811 62.2167 12.0636 65.3823 15.9546 65.3823H67.0451C70.9361 65.3823 74.1017 62.2168 74.1017 58.3258V24.8853C74.1017 20.9944 70.9363 17.8289 67.0453 17.8289H65.3168V16.1005C65.3168 12.2095 62.1515 9.04405 58.2605 9.04405H7.16974V9.04393ZM67.0453 60.26H15.9546C14.888 60.26 14.0203 59.3922 14.0203 58.3257V24.8853C14.0203 23.8188 14.888 22.9511 15.9546 22.9511H67.0453C68.1119 22.9511 68.9795 23.8188 68.9795 24.8853V58.3257C68.9794 59.3922 68.1118 60.26 67.0453 60.26ZM15.9546 23.0735C14.9555 23.0735 14.1427 23.8864 14.1427 24.8853V58.3257C14.1427 59.3248 14.9555 60.1375 15.9546 60.1375H67.0453C68.0443 60.1375 68.8571 59.3248 68.8571 58.3257V24.8853C68.8571 23.8863 68.0443 23.0735 67.0453 23.0735H15.9546ZM8.89811 51.4751H7.16986C6.10331 51.4751 5.23546 50.6074 5.23546 49.5409V16.1005C5.23546 15.034 6.10319 14.1662 7.16974 14.1662H58.2605C59.327 14.1662 60.1947 15.034 60.1947 16.1005V17.8289H15.9546C12.0636 17.8289 8.89811 20.9944 8.89811 24.8853V51.4751ZM7.16974 14.2885C6.17065 14.2885 5.35788 15.1013 5.35788 16.1004V49.5409C5.35788 50.5398 6.17077 51.3527 7.16986 51.3527H8.77581V24.8853C8.77581 20.9269 11.9963 17.7065 15.9547 17.7065H60.0724V16.1005C60.0724 15.1014 59.2596 14.2887 58.2606 14.2887H7.16974V14.2885Z"
            fill="#00AC4E" />
        <path
            d="M61.4511 52.4315L59.7254 50.7057L51.3698 42.3501C50.6383 41.6185 49.4524 41.6185 48.7209 42.3501L43.9729 47.0979L35.1033 38.2283C34.3718 37.4967 33.1858 37.4967 32.4544 38.2283L19.2695 51.4131L18.251 52.4315C17.8139 52.8686 17.6382 53.4677 17.7233 54.0354C17.7808 54.4178 17.9564 54.7861 18.251 55.0805L19.3107 56.1401C19.5899 56.4193 19.9355 56.5916 20.2967 56.6577C20.5203 56.6986 20.7499 56.6986 20.9734 56.6577C21.3347 56.5917 21.6803 56.4195 21.9595 56.1401L24.0642 54.0354L26.6865 51.4131L32.4543 45.6454C33.1858 44.9138 34.3718 44.9138 35.1031 45.6454L40.8707 51.4131L43.493 54.0354L45.5979 56.1401C45.8771 56.4193 46.2227 56.5916 46.584 56.6577C46.8075 56.6986 47.0371 56.6986 47.2606 56.6577C47.6219 56.5917 47.9674 56.4195 48.2467 56.1401L49.3064 55.0805C49.6007 54.786 49.7765 54.4178 49.834 54.0354C49.919 53.4677 49.7436 52.8687 49.3064 52.4315L48.2879 51.4131L47.6815 50.8066L50.0451 48.4427L53.0156 51.4131L55.6379 54.0354L57.7425 56.1401C58.0064 56.4039 58.3298 56.5721 58.6692 56.6456C59.1143 56.7419 59.5872 56.6748 59.9928 56.4441C60.1355 56.3628 60.2699 56.2619 60.3916 56.1402L61.4511 55.0806C62.138 54.3939 62.1799 53.3064 61.577 52.5706C61.5376 52.5227 61.4958 52.4763 61.4511 52.4315Z"
            fill="#00AC4E" />
        <path
            d="M46.9229 56.7503C46.806 56.7503 46.6885 56.7395 46.5735 56.7186C46.1862 56.6478 45.8341 56.463 45.5552 56.1841L35.0604 45.6893C34.7182 45.347 34.2632 45.1586 33.7792 45.1586C33.2953 45.1586 32.8402 45.347 32.4981 45.6893L22.0033 56.1841C21.7246 56.463 21.3724 56.6478 20.985 56.7186C20.7552 56.7605 20.5161 56.7605 20.2862 56.7186C19.8989 56.6478 19.5468 56.463 19.2679 56.1841L18.2082 55.1245C17.9135 54.83 17.7251 54.4567 17.6633 54.0452C17.5726 53.4402 17.7763 52.821 18.2082 52.3891L32.4116 38.1858C32.7769 37.8205 33.2627 37.6193 33.7793 37.6193C34.296 37.6193 34.7817 37.8205 35.1471 38.1858L43.9735 47.0123L48.6782 42.3077C49.0436 41.9424 49.5292 41.7411 50.046 41.7411C50.5627 41.7411 51.0484 41.9424 51.4137 42.3077L61.495 52.3891C61.5395 52.4337 61.5834 52.4819 61.625 52.5323C62.2573 53.3041 62.2014 54.4184 61.495 55.1247L60.4355 56.1842C60.3133 56.3064 60.1748 56.4119 60.0237 56.498C59.7339 56.663 59.4036 56.7502 59.0683 56.7502C59.0682 56.7502 59.0682 56.7502 59.0682 56.7502C58.9301 56.7502 58.7917 56.7355 58.6571 56.7062C58.294 56.6278 57.9631 56.4473 57.7 56.1842L50.046 48.5302L47.7689 50.8075L49.3506 52.3892C49.7824 52.821 49.986 53.4402 49.8953 54.0454C49.8336 54.4566 49.6453 54.8297 49.3506 55.1247L48.2909 56.1842C48.012 56.4631 47.6599 56.648 47.2726 56.7187C47.1574 56.7395 47.0399 56.7503 46.9229 56.7503ZM33.7793 45.0361C34.296 45.0361 34.7817 45.2374 35.1471 45.6027L45.6419 56.0975C45.9032 56.3588 46.233 56.5319 46.5957 56.5981C46.8109 56.6376 47.0352 56.6376 47.2504 56.5981C47.6132 56.5319 47.943 56.3588 48.2042 56.0975L49.2639 55.038C49.5399 54.7618 49.7163 54.4123 49.7742 54.027C49.8591 53.4601 49.6684 52.8801 49.2639 52.4755L47.5957 50.8073L50.0458 48.3569L57.7865 56.0975C58.0331 56.344 58.3429 56.5131 58.6829 56.5865C59.116 56.68 59.58 56.6095 59.9632 56.3915C60.1047 56.3109 60.2346 56.2119 60.349 56.0975L61.4084 55.038C62.07 54.3765 62.1224 53.3326 61.5304 52.61C61.4913 52.5627 61.4503 52.5174 61.4084 52.4755L51.3271 42.3941C50.9849 42.0518 50.5299 41.8634 50.046 41.8634C49.562 41.8634 49.107 42.0518 48.7648 42.3941L43.9735 47.1853L35.0605 38.2723C34.7183 37.93 34.2633 37.7416 33.7793 37.7416C33.2954 37.7416 32.8405 37.93 32.4982 38.2723L18.2949 52.4755C17.8903 52.8801 17.6995 53.4602 17.7846 54.027C17.8424 54.4124 18.0189 54.762 18.2949 55.038L19.3546 56.0975C19.6158 56.3588 19.9456 56.5319 20.3084 56.5981C20.5238 56.6376 20.7479 56.6376 20.9632 56.5981C21.326 56.5319 21.6559 56.3588 21.917 56.0975L32.4117 45.6027C32.7769 45.2374 33.2627 45.0361 33.7793 45.0361Z"
            fill="#00AC4E" />
        <path
            d="M60.1328 26.2902C59.316 25.9693 58.427 25.7928 57.4979 25.7928C53.5129 25.7928 50.2709 29.0349 50.2709 33.0197C50.2709 37.0047 53.5129 40.2466 57.4979 40.2466C58.4271 40.2466 59.3161 40.0702 60.1328 39.7492C61.1352 39.3552 62.0287 38.7436 62.7551 37.9728C63.9755 36.6783 64.7247 34.935 64.7247 33.0197C64.7247 31.1045 63.9755 29.3611 62.7551 28.0666C62.0287 27.2958 61.1351 26.6841 60.1328 26.2902ZM57.4975 35.002C56.4029 35.002 55.5154 34.1144 55.5154 33.0197C55.5154 31.925 56.4029 31.0376 57.4975 31.0376C58.5924 31.0376 59.4799 31.9251 59.4799 33.0197C59.48 34.1144 58.5925 35.002 57.4975 35.002Z"
            fill="#00AC4E" />
        <path
            d="M57.4984 40.3083C53.4796 40.3083 50.2102 37.0389 50.2102 33.0203C50.2102 29.0016 53.4796 25.7322 57.4984 25.7322C58.4144 25.7322 59.3086 25.901 60.1557 26.2339C61.1491 26.6242 62.0636 27.2436 62.8003 28.0252C64.0811 29.3838 64.7865 31.1577 64.7865 33.0203C64.7865 34.8828 64.0811 36.6567 62.8003 38.0154C62.0638 38.7968 61.1495 39.4161 60.1557 39.8068C59.3087 40.1395 58.4148 40.3083 57.4984 40.3083ZM57.4984 25.8546C53.5472 25.8546 50.3326 29.0691 50.3326 33.0203C50.3326 36.9715 53.5472 40.1859 57.4984 40.1859C58.3992 40.1859 59.2782 40.02 60.1111 39.6927C61.0879 39.3088 61.987 38.6998 62.7111 37.9314C63.9705 36.5955 64.664 34.8515 64.664 33.0203C64.664 31.1891 63.9705 29.4449 62.7111 28.1091C61.9868 27.3407 61.0876 26.7316 60.1111 26.3478C59.2781 26.0206 58.3992 25.8546 57.4984 25.8546ZM57.4982 35.0639C56.3714 35.0639 55.4548 34.1472 55.4548 33.0204C55.4548 31.8936 56.3714 30.977 57.4982 30.977C58.6251 30.977 59.5418 31.8937 59.5418 33.0204C59.5419 34.1472 58.6251 35.0639 57.4982 35.0639ZM57.4982 31.0993C56.439 31.0993 55.5772 31.9611 55.5772 33.0203C55.5772 34.0796 56.439 34.9413 57.4982 34.9413C58.5575 34.9413 59.4194 34.0795 59.4194 33.0203C59.4195 31.9611 58.5576 31.0993 57.4982 31.0993Z"
            fill="#00AC4E" />
    </g>
    <defs>
        <clipPath id="clip0_174_85">
            <rect width="74.2331" height="74.2331" fill="white"
                transform="translate(-0.00915527 0.0965576)" />
        </clipPath>
    </defs>
</svg>